<svg width="36" height="36" viewBox="0 0 36 36" fill="none" xmlns="http://www.w3.org/2000/svg">
<path d="M18 35C13.4913 35 9.1673 33.2089 5.97919 30.0208C2.79107 26.8327 1 22.5087 1 18C1 13.4913 2.79107 9.1673 5.97918 5.97919C9.1673 2.79107 13.4913 1 18 1" stroke="#9A0014" stroke-width="2"/>
<path d="M18 5C21.4478 5 24.7544 6.36964 27.1924 8.80761C29.6304 11.2456 31 14.5522 31 18C31 21.4478 29.6304 24.7544 27.1924 27.1924C24.7544 29.6304 21.4478 31 18 31" stroke="#9A0014" stroke-width="2"/>
<path d="M18 9C15.6131 9 13.3239 9.94821 11.636 11.636C9.94821 13.3239 9 15.6131 9 18C9 20.3869 9.94821 22.6761 11.636 24.364C13.3239 26.0518 15.6131 27 18 27" stroke="#9A0014" stroke-width="2"/>
</svg>
