<svg width="32" height="32" fill="none" xmlns="http://www.w3.org/2000/svg"><path d="M13.067 23.333c-.519 0-.43-.195-.61-.689l-1.524-5.017 11.734-6.96" fill="#C8DAEA"/><path d="M13.067 23.333c.4 0 .576-.183.8-.4L16 20.86l-2.661-1.605" fill="#A9C9DD"/><path d="M13.339 19.255l6.448 4.764c.735.405 1.267.195 1.45-.684l2.624-12.368c.27-1.077-.41-1.566-1.114-1.246L7.335 15.663c-1.052.422-1.046 1.01-.192 1.27l3.955 1.235 9.156-5.776c.433-.263.83-.122.504.167" fill="url(#paint0_linear_419_1260)"/><defs><linearGradient id="paint0_linear_419_1260" x1="13.997" y1="16.983" x2="15.707" y2="22.513" gradientUnits="userSpaceOnUse"><stop stop-color="#EFF7FC"/><stop offset="1" stop-color="#fff"/></linearGradient></defs></svg>