<svg version="1.0" xmlns="http://www.w3.org/2000/svg" width="933.333" height="933.333" viewBox="0 0 700 700"><path d="M0 350v350h700V0H0v350zm386.5-156.3c13.8 2.5 32.9 11.2 46.7 21 2.6 1.9 4.8 3.2 4.8 2.9 0-.4-2.7-6-6-12.6s-6-12.4-6-13c0-.6 9.7-1 28-1 19.5 0 28 .3 28 1.1 0 .6 2.9 30.4 6.5 66.2 6.9 68.7 6.9 66.7 2 66.7-1.5 0-3.8-3-9-11.8-23.7-39.7-36.9-53.9-58.8-63.1-16-6.6-38.9-7.7-54.4-2.6-38.3 12.7-65.6 65.1-62.7 120.5 1.6 32.6 7.3 55.3 18.3 73.5 11.8 19.4 29.7 32.1 51.6 36.6 13.9 2.9 34.9 2.2 47.9-1.5 19.4-5.5 37.4-16.6 48.9-30.1 3.3-3.8 6.3-7.4 6.8-7.9.5-.6.9 6.7.9 17.2v18.1l-8.7 8.8c-21.3 21.4-45.5 34.7-73.2 40.3-21.3 4.2-46.3 4.8-65.9 1.4-26.7-4.6-55.9-19.8-77.8-40.6-23-21.9-41.2-55.4-48.4-89.3-2.8-12.9-3.9-44.2-2-57.8 5.9-44.3 27.4-83.6 60-110 35.4-28.5 80.8-40.8 122.5-33z"/></svg>