<?xml version="1.0" standalone="no"?>
<!DOCTYPE svg PUBLIC "-//W3C//DTD SVG 20010904//EN"
 "http://www.w3.org/TR/2001/REC-SVG-20010904/DTD/svg10.dtd">
<svg version="1.0" xmlns="http://www.w3.org/2000/svg"
 width="700.000000pt" height="700.000000pt" viewBox="0 0 700.000000 700.000000"
 preserveAspectRatio="xMidYMid meet">
<metadata>
Created by potrace 1.14, written by Peter Selinger 2001-2017
</metadata>
<g transform="translate(0.000000,700.000000) scale(0.100000,-0.100000)"
fill="#000000" stroke="none">
<path d="M0 3500 l0 -3500 3500 0 3500 0 0 3500 0 3500 -3500 0 -3500 0 0
-3500z m3865 1563 c138 -25 329 -112 467 -210 26 -19 48 -32 48 -29 0 4 -27
60 -60 126 -33 66 -60 124 -60 130 0 6 97 10 280 10 195 0 280 -3 280 -11 0
-6 29 -304 65 -662 69 -687 69 -667 20 -667 -15 0 -38 30 -90 118 -237 397
-369 539 -588 631 -160 66 -389 77 -544 26 -383 -127 -656 -651 -627 -1205 16
-326 73 -553 183 -735 118 -194 297 -321 516 -366 139 -29 349 -22 479 15 194
55 374 166 489 301 33 38 63 74 68 79 5 6 9 -67 9 -172 l0 -181 -87 -88 c-213
-214 -455 -347 -732 -403 -213 -42 -463 -48 -659 -14 -267 46 -559 198 -778
406 -230 219 -412 554 -484 893 -28 129 -39 442 -20 578 59 443 274 836 600
1100 354 285 808 408 1225 330z"/>
</g>
</svg>
